<svg width="80" height="80" viewBox="0 0 80 80" fill="none" xmlns="http://www.w3.org/2000/svg">
<path d="M58.1556 12.9414H21.8444C16.9563 12.9414 12.9412 16.9566 12.9412 21.8446V49.3399C12.9412 54.3152 16.9563 58.3304 21.8444 58.3304H36.5085V60.0761H31.6205C28.5654 60.0761 26.0341 62.6074 26.0341 65.6625V66.1862C26.0341 66.7099 26.3833 67.0591 26.907 67.0591H53.093C53.6167 67.0591 53.9658 66.7099 53.9658 66.1862V65.6625C53.9658 62.6074 51.4345 60.0761 48.3795 60.0761H43.4914V58.3304H58.1556C63.0436 58.3304 67.0588 54.3152 67.0588 49.4272V21.8446C67.0588 16.9566 63.0436 12.9414 58.1556 12.9414ZM14.6869 21.8446C14.6869 17.9167 17.9165 14.6871 21.8444 14.6871H58.0683C61.9962 14.6871 65.2258 17.9167 65.2258 21.8446V49.3399C65.2258 49.4272 65.2258 49.5145 65.2258 49.5145H14.6869C14.6869 49.4272 14.6869 49.3399 14.6869 49.3399V21.8446ZM52.2201 65.3133H27.7799C27.9544 63.393 29.6129 61.8219 31.6205 61.8219H37.3814H42.6186H48.3795C50.3871 61.8219 52.0455 63.393 52.2201 65.3133ZM41.7457 60.0761H38.2543V58.3304H41.7457V60.0761ZM58.1556 56.5847H42.6186H37.3814H21.8444C18.5275 56.5847 15.8216 54.4025 14.9488 51.3475H65.0512C64.1784 54.4025 61.3852 56.5847 58.1556 56.5847Z" fill="white"/>
<path d="M26.907 44.2774H31.2713C31.795 44.2774 32.1442 43.9283 32.1442 43.4045V34.6759C32.1442 34.1522 31.795 33.803 31.2713 33.803H27.7799V30.3116C27.7799 23.5905 33.2789 18.0914 40 18.0914C46.721 18.0914 52.2201 23.5905 52.2201 30.3116V33.803H48.7286C48.2049 33.803 47.8558 34.1522 47.8558 34.6759V43.4045C47.8558 43.9283 48.2049 44.2774 48.7286 44.2774H49.0778H45.0626C44.7134 43.23 43.7533 42.5317 42.6186 42.5317C41.1347 42.5317 40 43.6664 40 45.1503C40 46.6341 41.1347 47.7689 42.6186 47.7689C43.7533 47.7689 44.7134 47.0706 45.0626 46.0231H49.9506C50.4744 46.0231 50.8235 45.674 50.8235 45.1503V44.2774H53.093C55.9734 44.2774 58.3301 41.9207 58.3301 39.0402C58.3301 36.4216 56.4098 34.3267 53.9658 33.8903V30.3116C53.9658 22.6303 47.6812 16.3457 40 16.3457C32.3188 16.3457 26.0341 22.6303 26.0341 30.3116V33.8903C23.5901 34.3267 21.6698 36.4216 21.6698 39.0402C21.6698 41.9207 24.0265 44.2774 26.907 44.2774ZM42.6186 46.0231C42.0949 46.0231 41.7457 45.674 41.7457 45.1503C41.7457 44.6265 42.0949 44.2774 42.6186 44.2774C43.1423 44.2774 43.4914 44.6265 43.4914 45.1503C43.4914 45.674 43.1423 46.0231 42.6186 46.0231ZM56.5844 39.0402C56.5844 40.9605 55.0133 42.5317 53.093 42.5317H49.6015V35.5487H53.093C55.0133 35.5487 56.5844 37.1199 56.5844 39.0402ZM26.907 35.5487H30.3985V42.5317H26.907C24.9867 42.5317 23.4155 40.9605 23.4155 39.0402C23.4155 37.1199 24.9867 35.5487 26.907 35.5487Z" fill="white"/>
</svg>
