<svg width="80" height="80" viewBox="0 0 80 80" fill="none" xmlns="http://www.w3.org/2000/svg">
<path d="M39.76 69.2938C41.599 69.6468 43.427 69.8248 45.195 69.8248C46.792 69.8248 48.368 69.6788 49.89 69.3888C49.999 69.3668 52.559 68.8358 54.157 67.2488C54.433 67.0078 55.714 65.7968 55.83 63.9678C55.886 63.0878 55.669 62.2218 55.186 61.3758C63.133 56.2078 67.859 47.5548 67.859 38.0338C67.859 22.6728 55.362 10.1758 40.001 10.1758C30.565 10.1758 21.977 14.8208 16.793 22.6428L15.523 21.3728C14.339 20.2408 13.088 19.6678 11.805 19.6678C9.82697 19.6678 8.51097 21.0588 8.25697 21.3488C6.66897 22.9478 6.13897 25.5058 6.11397 25.6258C5.58097 28.4338 5.54697 31.4248 6.01297 34.5178C8.43697 50.5898 23.575 66.1898 39.76 69.2938ZM40 12.1768C54.259 12.1768 65.858 23.7768 65.858 38.0348C65.858 46.9308 61.413 55.0108 53.947 59.7978L44.915 50.7658C44.781 50.6318 43.56 49.4648 41.701 49.4648C40.674 49.4648 39.674 49.8238 38.678 50.5748C38.601 50.6408 37.005 52.0318 36.003 54.0678C29.513 51.9208 23.59 45.9908 21.451 39.4918C23.478 38.4888 24.867 36.8948 24.97 36.7728C26.991 34.0848 25.701 31.5508 24.738 30.5868L18.237 24.0858C23.023 16.6228 31.107 12.1768 40 12.1768ZM8.07497 26.0118C8.07997 25.9908 8.51997 23.9008 9.69297 22.7398C9.71497 22.7178 9.74197 22.6878 9.76197 22.6648C9.76997 22.6548 10.61 21.6678 11.803 21.6678C12.554 21.6678 13.34 22.0558 14.123 22.8028L23.317 31.9968C23.474 32.1598 24.815 33.6498 23.413 35.5188C23.398 35.5368 21.879 37.2688 19.877 37.9948C19.556 38.1118 19.329 38.3968 19.255 38.7308C19.212 38.9228 19.232 39.1248 19.303 39.3068C21.515 47.1168 28.492 54.0768 36.3 56.2488C36.804 56.3878 37.33 56.1168 37.509 55.6258C38.228 53.6428 39.936 52.1318 39.932 52.1318C39.932 52.1318 39.932 52.1318 39.931 52.1318C40.521 51.6898 41.117 51.4648 41.702 51.4648C42.747 51.4648 43.501 52.1788 43.502 52.1798L52.687 61.3638C53.493 62.2078 53.878 63.0348 53.834 63.8248C53.771 64.9518 52.851 65.7358 52.847 65.7388C52.819 65.7608 52.792 65.7858 52.767 65.8108C51.604 66.9848 49.514 67.4238 49.506 67.4258C46.567 67.9848 43.39 67.9528 40.137 67.3278C24.719 64.3728 10.298 49.5208 7.99097 34.2188C7.55797 31.3508 7.58697 28.5848 8.07497 26.0118Z" fill="white"/>
<path d="M37.1369 32.5765C36.8349 32.9005 36.4369 33.2385 35.9519 33.5815C35.5619 33.8435 34.9559 34.3535 34.0789 35.1595C33.2719 35.9025 32.3599 36.8005 31.3669 37.8315C30.9649 38.2565 30.6339 38.7695 30.3409 39.4135C30.0169 40.1295 29.8669 40.7235 29.8669 41.2865C29.8669 42.2325 30.2309 43.0925 30.9189 43.7735C31.3979 44.2465 32.2499 44.8065 33.6069 44.8065H41.6589C42.9619 44.8065 43.7499 44.2685 44.1819 43.8165C44.7789 43.1905 45.0919 42.3995 45.0919 41.5255C45.0919 41.4235 45.0689 41.3275 45.0599 41.2285C45.4439 41.3205 45.8499 41.3825 46.2979 41.3825H49.7889V41.4165C49.7889 42.4685 50.0879 43.3355 50.6769 43.9935C51.3079 44.6955 52.1869 45.0795 53.1569 45.0795C54.1299 45.0795 55.0099 44.7005 55.6329 44.0135C56.2239 43.3615 56.5239 42.4885 56.5239 41.4165V41.2205C56.9189 41.1125 57.2699 40.9505 57.5829 40.7325C58.4039 40.1585 58.8539 39.2475 58.8539 38.1675C58.8539 36.3005 57.6749 35.5665 57.1679 35.3375C56.9649 35.2465 56.7509 35.1705 56.5239 35.1105V28.4635C56.5239 26.0925 55.0859 24.5605 52.8609 24.5605C52.0089 24.5605 51.2309 24.8665 50.6129 25.4455C50.2759 25.7625 49.8929 26.2125 49.4389 26.8245L44.4079 33.5535C44.6699 32.8245 44.8169 32.0555 44.8169 31.2435C44.8169 30.4115 44.6599 29.5995 44.3489 28.8275C44.0419 28.0625 43.6029 27.3735 43.0429 26.7825C42.4829 26.1895 41.8209 25.7165 41.0769 25.3765C40.0189 24.9055 38.7839 24.6705 37.3899 24.6705C36.2149 24.6705 35.1519 24.8555 34.2299 25.2215C33.2929 25.5935 32.4929 26.1035 31.8519 26.7385C31.2149 27.3705 30.7259 28.0915 30.3989 28.8835C30.0739 29.6675 29.9089 30.4545 29.9089 31.2215C29.9089 32.4195 30.4219 33.1865 30.8519 33.6185C31.4769 34.2415 32.2789 34.5675 33.1769 34.5675C34.1909 34.5675 35.0769 34.1675 35.6719 33.4405C36.0389 32.9915 36.3389 32.4255 36.5909 31.7105C36.6969 31.4075 36.7599 31.2495 36.7899 31.1775C36.9829 30.9115 37.1229 30.8915 37.3239 30.8915C37.4469 30.8915 37.5429 30.9135 37.6359 30.9625C37.7009 30.9975 37.7369 31.0305 37.7739 31.0915C37.7859 31.1115 37.8179 31.1655 37.8179 31.3095C37.8179 31.4455 37.7759 31.6065 37.6919 31.7865C37.5759 32.0405 37.3889 32.3065 37.1369 32.5765ZM42.2839 38.3195C41.9859 38.2635 41.6759 38.2255 41.3409 38.2255H40.6009C41.2629 37.6765 41.7599 37.2515 42.1099 36.9375C42.1999 36.8565 42.2869 36.7645 42.3759 36.6765C42.2779 36.9945 42.2189 37.3135 42.2189 37.6325C42.2189 37.8705 42.2469 38.0965 42.2839 38.3195ZM44.8429 36.3095C44.9519 36.1635 45.0869 35.9845 45.2469 35.7735L51.0459 28.0165C51.4249 27.5055 51.7359 27.1355 51.9809 26.9065C52.2259 26.6775 52.5189 26.5615 52.8619 26.5615C53.9699 26.5615 54.5249 27.1965 54.5249 28.4645V36.9325H54.9959C55.5579 36.9325 56.0079 37.0095 56.3469 37.1615C56.6869 37.3145 56.8559 37.6505 56.8559 38.1685C56.8559 38.5915 56.7169 38.8995 56.4409 39.0935C56.1639 39.2865 55.7479 39.3835 55.1929 39.3835H54.5259V41.4175C54.5259 41.9795 54.4019 42.3965 54.1539 42.6705C53.9059 42.9445 53.5739 43.0805 53.1589 43.0805C52.7499 43.0805 52.4209 42.9395 52.1689 42.6595C51.9169 42.3785 51.7909 41.9645 51.7909 41.4175V39.3835H46.2999C45.6069 39.3835 45.0869 39.2265 44.7399 38.9125C44.3929 38.5985 44.2199 38.1725 44.2199 37.6325C44.2199 37.4935 44.2449 37.3535 44.2959 37.2115C44.3479 37.0685 44.4239 36.9195 44.5259 36.7625C44.6269 36.6055 44.7329 36.4545 44.8429 36.3095ZM39.4869 30.0565C39.2639 29.6885 38.9619 29.4025 38.5789 29.1985C38.1959 28.9945 37.7779 28.8915 37.3259 28.8915C36.3709 28.8915 35.6189 29.3115 35.0719 30.1495C34.9999 30.2585 34.8769 30.5585 34.7059 31.0465C34.5339 31.5355 34.3409 31.9105 34.1259 32.1735C33.9109 32.4365 33.5959 32.5675 33.1799 32.5675C32.8159 32.5675 32.5129 32.4475 32.2719 32.2075C32.0319 31.9665 31.9119 31.6385 31.9119 31.2225C31.9119 30.7195 32.0239 30.1945 32.2509 29.6475C32.4769 29.1005 32.8139 28.6045 33.2629 28.1605C33.7119 27.7155 34.2809 27.3555 34.9699 27.0825C35.6589 26.8095 36.4669 26.6725 37.3929 26.6725C38.5089 26.6725 39.4609 26.8475 40.2479 27.1975C40.7589 27.4305 41.2069 27.7515 41.5939 28.1605C41.9809 28.5685 42.2819 29.0405 42.4959 29.5765C42.7119 30.1125 42.8189 30.6695 42.8189 31.2455C42.8189 32.1495 42.5939 32.9725 42.1459 33.7125C41.6979 34.4525 41.2399 35.0325 40.7729 35.4515C40.3059 35.8715 39.5239 36.5295 38.4259 37.4265C37.3279 38.3235 36.5749 39.0205 36.1669 39.5165C35.9909 39.7135 35.8129 39.9505 35.6309 40.2275H41.3409C41.9099 40.2275 42.3439 40.3445 42.6439 40.5785C42.9429 40.8115 43.0919 41.1295 43.0919 41.5295C43.0919 41.8865 42.9729 42.1895 42.7369 42.4375C42.4999 42.6855 42.1399 42.8095 41.6589 42.8095H33.6069C33.0599 42.8095 32.6329 42.6585 32.3269 42.3555C32.0209 42.0525 31.8679 41.6975 31.8679 41.2895C31.8679 41.0265 31.9669 40.6785 32.1629 40.2445C32.3599 39.8105 32.5749 39.4695 32.8089 39.2225C33.7799 38.2155 34.6549 37.3535 35.4349 36.6345C36.2149 35.9165 36.7729 35.4445 37.1089 35.2175C37.7069 34.7945 38.2049 34.3695 38.6019 33.9435C38.9989 33.5175 39.3019 33.0795 39.5099 32.6305C39.7179 32.1815 39.8219 31.7425 39.8219 31.3125C39.8199 30.8425 39.7089 30.4245 39.4869 30.0565Z" fill="white"/>
<path d="M51.7891 30.5742L47.0851 36.9312H51.7891V30.5742Z" fill="white"/>
</svg>
