<svg width="80" height="80" viewBox="0 0 80 80" fill="none" xmlns="http://www.w3.org/2000/svg">
<path d="M44.2299 45.4694L36.8899 27.1094L29.7299 39.9994H10.9999V42.9994H31.4999L36.4499 34.0894L43.6399 52.0694L49.3099 42.9994H69.9999V39.9994H47.6499L44.2299 45.4694Z" fill="white"/>
<path d="M66.2001 37.9996C67.5462 35.1291 68.0358 31.9313 67.6101 28.7896C67.1977 25.7802 65.9303 22.9524 63.9585 20.642C61.9867 18.3315 59.3932 16.6355 56.4861 15.7552C53.579 14.875 50.4803 14.8475 47.558 15.6761C44.6357 16.5046 42.0126 18.1545 40.0001 20.4296C37.9876 18.1545 35.3645 16.5046 32.4422 15.6761C29.5199 14.8475 26.4212 14.875 23.5141 15.7552C20.6069 16.6355 18.0135 18.3315 16.0417 20.642C14.0698 22.9524 12.8025 25.7802 12.3901 28.7896C11.9644 31.9313 12.454 35.1291 13.8001 37.9996H17.1601C15.6033 35.3425 14.9736 32.2435 15.3701 29.1896C15.7371 26.5824 16.8912 24.1495 18.6782 22.2159C20.4652 20.2824 22.7999 18.9405 25.3701 18.3696C26.278 18.1802 27.2027 18.0831 28.1301 18.0796C30.2228 18.0729 32.2848 18.5823 34.1337 19.5625C35.9826 20.5428 37.5613 21.9637 38.7301 23.6996L40.0001 25.5096L41.2401 23.6996C42.6757 21.5739 44.7174 19.929 47.0998 18.9785C49.4823 18.028 52.0955 17.8159 54.6001 18.3696C57.1703 18.9405 59.505 20.2824 61.2919 22.2159C63.0789 24.1495 64.2331 26.5824 64.6001 29.1896C65.0056 32.2401 64.3865 35.339 62.8401 37.9996H66.2001Z" fill="white"/>
<path d="M24.8099 51.39C30.4699 57 38.9199 64.47 38.9999 64.54L39.9999 65.42L40.9999 64.54C41.0899 64.47 49.5399 56.99 55.1999 51.39L56.4899 50.12C58.1599 48.5 59.8799 46.8 61.4899 45H57.3699C56.3699 46 55.3699 47 54.3699 48L53.0699 49.28C48.6199 53.67 42.3999 59.27 39.9999 61.41C37.5999 59.27 31.3799 53.67 26.9199 49.26L25.6199 48C24.6199 47 23.6199 46 22.6199 45H18.5399C20.1299 46.8 21.8499 48.5 23.5399 50.12L24.8099 51.39Z" fill="white"/>
</svg>
